<svg width="219" height="60" viewBox="0 0 219 60" fill="none" xmlns="http://www.w3.org/2000/svg">
<path d="M57 30.5C57 15.3122 44.6878 3 29.5 3C14.3122 3 2 15.3122 2 30.5C2 45.6878 14.3122 58 29.5 58C44.6878 58 57 45.6878 57 30.5Z" fill="url(#paint0_linear_415_13)"/>
<path d="M73.5281 26.0835C73.4627 25.4246 73.1823 24.9128 72.6868 24.5479C72.1913 24.1831 71.5188 24.0007 70.6694 24.0007C70.0922 24.0007 69.6049 24.0824 69.2074 24.2457C68.8099 24.4036 68.505 24.6242 68.2926 24.9073C68.0857 25.1905 67.9822 25.5117 67.9822 25.8711C67.9714 26.1706 68.034 26.4319 68.1701 26.6552C68.3117 26.8784 68.505 27.0717 68.75 27.2351C68.995 27.393 69.2782 27.5318 69.5994 27.6516C69.9207 27.766 70.2637 27.864 70.6286 27.9457L72.1314 28.305C72.861 28.4684 73.5308 28.6862 74.1406 28.9585C74.7505 29.2307 75.2786 29.5656 75.7251 29.9631C76.1716 30.3606 76.5174 30.8288 76.7624 31.3679C77.0129 31.907 77.1409 32.525 77.1463 33.2219C77.1409 34.2456 76.8795 35.1332 76.3622 35.8846C75.8504 36.6306 75.1098 37.2105 74.1406 37.6243C73.1768 38.0327 72.0143 38.2369 70.6531 38.2369C69.3027 38.2369 68.1265 38.0299 67.1246 37.6161C66.1282 37.2023 65.3496 36.5897 64.7887 35.7784C64.2333 34.9616 63.942 33.9516 63.9148 32.7482H67.337C67.3751 33.3091 67.5357 33.7773 67.8189 34.1531C68.1075 34.5233 68.4914 34.8037 68.9705 34.9943C69.4551 35.1795 70.0024 35.272 70.6122 35.272C71.2112 35.272 71.7312 35.1849 72.1722 35.0107C72.6187 34.8364 72.9645 34.5941 73.2095 34.2837C73.4545 33.9734 73.5771 33.6167 73.5771 33.2138C73.5771 32.8381 73.4654 32.5223 73.2422 32.2663C73.0244 32.0104 72.7031 31.7926 72.2784 31.6129C71.8591 31.4332 71.3446 31.2699 70.7347 31.1229L68.9134 30.6655C67.5031 30.3224 66.3896 29.7861 65.5728 29.0565C64.756 28.3268 64.3504 27.344 64.3558 26.108C64.3504 25.0952 64.6199 24.2103 65.1644 23.4535C65.7144 22.6966 66.4685 22.1058 67.4268 21.6811C68.3852 21.2564 69.4742 21.044 70.6939 21.044C71.9354 21.044 73.0189 21.2564 73.9446 21.6811C74.8757 22.1058 75.5999 22.6966 76.1172 23.4535C76.6345 24.2103 76.9013 25.087 76.9176 26.0835H73.5281ZM82.6125 34.3899L82.6206 30.2163H83.127L87.1455 25.4545H91.1395L85.7407 31.7599H84.9157L82.6125 34.3899ZM79.4598 38V21.2727H82.9392V38H79.4598ZM87.3007 38L83.6089 32.5359L85.9285 30.0774L91.3763 38H87.3007ZM92.8465 38V25.4545H96.3259V38H92.8465ZM94.5944 23.8374C94.0771 23.8374 93.6333 23.6658 93.2631 23.3228C92.8982 22.9743 92.7158 22.5578 92.7158 22.0732C92.7158 21.594 92.8982 21.1829 93.2631 20.8398C93.6333 20.4914 94.0771 20.3171 94.5944 20.3171C95.1117 20.3171 95.5527 20.4914 95.9175 20.8398C96.2878 21.1829 96.4729 21.594 96.4729 22.0732C96.4729 22.5578 96.2878 22.9743 95.9175 23.3228C95.5527 23.6658 95.1117 23.8374 94.5944 23.8374ZM102.593 21.2727V38H99.1131V21.2727H102.593ZM108.859 21.2727V38H105.38V21.2727H108.859ZM117.035 38V21.2727H120.571V35.0842H127.743V38H117.035ZM135.737 38.245C134.446 38.245 133.335 37.9837 132.404 37.4609C131.479 36.9328 130.765 36.1868 130.264 35.223C129.763 34.2538 129.513 33.1076 129.513 31.7844C129.513 30.494 129.763 29.3614 130.264 28.3867C130.765 27.4121 131.47 26.6525 132.38 26.108C133.295 25.5634 134.367 25.2912 135.598 25.2912C136.425 25.2912 137.196 25.4246 137.909 25.6914C138.628 25.9528 139.254 26.3475 139.788 26.8757C140.327 27.4039 140.746 28.0682 141.046 28.8686C141.345 29.6636 141.495 30.5947 141.495 31.6619V32.6175H130.901V30.4613H138.22C138.22 29.9603 138.111 29.5166 137.893 29.13C137.675 28.7434 137.373 28.4412 136.986 28.2234C136.605 28.0001 136.161 27.8885 135.655 27.8885C135.127 27.8885 134.659 28.011 134.25 28.256C133.847 28.4956 133.531 28.8196 133.303 29.228C133.074 29.6309 132.957 30.0801 132.952 30.5756V32.6257C132.952 33.2464 133.066 33.7828 133.295 34.2347C133.529 34.6867 133.858 35.0352 134.283 35.2802C134.708 35.5252 135.211 35.6477 135.794 35.6477C136.18 35.6477 136.534 35.5933 136.856 35.4844C137.177 35.3755 137.452 35.2121 137.681 34.9943C137.909 34.7765 138.084 34.5097 138.203 34.1939L141.421 34.4062C141.258 35.1795 140.923 35.8546 140.417 36.4318C139.916 37.0036 139.268 37.45 138.473 37.7713C137.683 38.0871 136.771 38.245 135.737 38.245ZM147.343 38.2369C146.542 38.2369 145.829 38.098 145.203 37.8203C144.577 37.5372 144.081 37.1206 143.716 36.5707C143.357 36.0153 143.177 35.3237 143.177 34.4961C143.177 33.7991 143.305 33.2138 143.561 32.7401C143.817 32.2663 144.166 31.8852 144.607 31.5966C145.048 31.308 145.549 31.0902 146.11 30.9432C146.676 30.7962 147.269 30.6927 147.89 30.6328C148.62 30.5566 149.208 30.4858 149.654 30.4205C150.101 30.3497 150.425 30.2462 150.626 30.1101C150.828 29.974 150.928 29.7725 150.928 29.5057V29.4567C150.928 28.9394 150.765 28.5392 150.438 28.256C150.117 27.9729 149.66 27.8313 149.066 27.8313C148.44 27.8313 147.942 27.9702 147.572 28.2479C147.201 28.5201 146.956 28.8632 146.836 29.277L143.618 29.0156C143.782 28.2533 144.103 27.5945 144.582 27.0391C145.061 26.4782 145.679 26.0481 146.436 25.7486C147.199 25.4437 148.081 25.2912 149.083 25.2912C149.78 25.2912 150.447 25.3729 151.084 25.5362C151.726 25.6996 152.295 25.9528 152.791 26.2958C153.292 26.6388 153.686 27.0799 153.975 27.619C154.264 28.1526 154.408 28.7924 154.408 29.5384V38H151.108V36.2603H151.01C150.809 36.6523 150.539 36.9981 150.202 37.2976C149.864 37.5916 149.458 37.823 148.985 37.9918C148.511 38.1552 147.964 38.2369 147.343 38.2369ZM148.339 35.8356C148.851 35.8356 149.303 35.7348 149.695 35.5334C150.087 35.3265 150.395 35.0488 150.618 34.7003C150.841 34.3518 150.953 33.957 150.953 33.516V32.1847C150.844 32.2554 150.694 32.3208 150.504 32.3807C150.319 32.4351 150.109 32.4869 149.875 32.5359C149.641 32.5794 149.407 32.6203 149.172 32.6584C148.938 32.6911 148.726 32.721 148.535 32.7482C148.127 32.8081 147.77 32.9034 147.465 33.0341C147.16 33.1648 146.924 33.3417 146.755 33.565C146.586 33.7828 146.502 34.055 146.502 34.3817C146.502 34.8555 146.673 35.2176 147.016 35.468C147.365 35.7131 147.806 35.8356 148.339 35.8356ZM157.107 38V25.4545H160.48V27.6435H160.611C160.84 26.8648 161.224 26.2768 161.763 25.8793C162.302 25.4763 162.923 25.2749 163.625 25.2749C163.799 25.2749 163.987 25.2857 164.189 25.3075C164.39 25.3293 164.567 25.3593 164.719 25.3974V28.4847C164.556 28.4357 164.33 28.3922 164.042 28.354C163.753 28.3159 163.489 28.2969 163.249 28.2969C162.737 28.2969 162.28 28.4085 161.877 28.6317C161.48 28.8495 161.164 29.1545 160.93 29.5465C160.701 29.9386 160.587 30.3905 160.587 30.9023V38H157.107ZM169.998 30.7472V38H166.518V25.4545H169.834V27.668H169.981C170.259 26.9383 170.725 26.3611 171.378 25.9364C172.032 25.5063 172.824 25.2912 173.755 25.2912C174.626 25.2912 175.386 25.4818 176.034 25.8629C176.682 26.2441 177.185 26.7886 177.545 27.4964C177.904 28.1989 178.084 29.0374 178.084 30.0121V38H174.604V30.6328C174.61 29.8651 174.414 29.2661 174.016 28.8359C173.619 28.4003 173.072 28.1825 172.375 28.1825C171.906 28.1825 171.492 28.2833 171.133 28.4847C170.779 28.6862 170.501 28.9802 170.3 29.3668C170.104 29.748 170.003 30.2081 169.998 30.7472ZM180.826 38V25.4545H184.305V38H180.826ZM182.574 23.8374C182.057 23.8374 181.613 23.6658 181.243 23.3228C180.878 22.9743 180.695 22.5578 180.695 22.0732C180.695 21.594 180.878 21.1829 181.243 20.8398C181.613 20.4914 182.057 20.3171 182.574 20.3171C183.091 20.3171 183.532 20.4914 183.897 20.8398C184.267 21.1829 184.452 21.594 184.452 22.0732C184.452 22.5578 184.267 22.9743 183.897 23.3228C183.532 23.6658 183.091 23.8374 182.574 23.8374ZM190.572 30.7472V38H187.093V25.4545H190.409V27.668H190.556C190.833 26.9383 191.299 26.3611 191.952 25.9364C192.606 25.5063 193.398 25.2912 194.329 25.2912C195.2 25.2912 195.96 25.4818 196.608 25.8629C197.256 26.2441 197.759 26.7886 198.119 27.4964C198.478 28.1989 198.658 29.0374 198.658 30.0121V38H195.179V30.6328C195.184 29.8651 194.988 29.2661 194.59 28.8359C194.193 28.4003 193.646 28.1825 192.949 28.1825C192.48 28.1825 192.067 28.2833 191.707 28.4847C191.353 28.6862 191.076 28.9802 190.874 29.3668C190.678 29.748 190.577 30.2081 190.572 30.7472ZM207.052 42.9659C205.925 42.9659 204.959 42.8107 204.153 42.5004C203.352 42.1954 202.715 41.7789 202.241 41.2507C201.768 40.7225 201.46 40.129 201.319 39.4702L204.537 39.0373C204.635 39.2878 204.79 39.5219 205.002 39.7397C205.214 39.9575 205.495 40.1317 205.843 40.2624C206.197 40.3986 206.627 40.4666 207.134 40.4666C207.891 40.4666 208.514 40.2815 209.004 39.9112C209.5 39.5464 209.748 38.9338 209.748 38.0735V35.7784H209.6C209.448 36.1269 209.219 36.4563 208.914 36.7667C208.609 37.0771 208.217 37.3303 207.738 37.5263C207.259 37.7223 206.687 37.8203 206.023 37.8203C205.081 37.8203 204.223 37.6025 203.45 37.1669C202.683 36.7259 202.07 36.0534 201.613 35.1495C201.161 34.2402 200.935 33.0913 200.935 31.7028C200.935 30.2816 201.166 29.0946 201.629 28.1417C202.092 27.1888 202.707 26.4755 203.475 26.0018C204.248 25.5281 205.095 25.2912 206.015 25.2912C206.717 25.2912 207.305 25.411 207.779 25.6506C208.253 25.8847 208.634 26.1787 208.923 26.5327C209.217 26.8812 209.443 27.2242 209.6 27.5618H209.731V25.4545H213.186V38.1225C213.186 39.1897 212.925 40.0827 212.402 40.8015C211.879 41.5202 211.155 42.0593 210.229 42.4187C209.309 42.7835 208.25 42.9659 207.052 42.9659ZM207.126 35.2067C207.687 35.2067 208.16 35.0678 208.547 34.7901C208.939 34.507 209.238 34.104 209.445 33.5813C209.658 33.0531 209.764 32.4215 209.764 31.6864C209.764 30.9513 209.66 30.3143 209.453 29.7752C209.247 29.2307 208.947 28.8087 208.555 28.5092C208.163 28.2098 207.687 28.06 207.126 28.06C206.554 28.06 206.072 28.2152 205.68 28.5256C205.288 28.8305 204.991 29.2552 204.79 29.7997C204.588 30.3442 204.488 30.9731 204.488 31.6864C204.488 32.4106 204.588 33.0368 204.79 33.565C204.997 34.0877 205.293 34.4934 205.68 34.782C206.072 35.0651 206.554 35.2067 207.126 35.2067Z" fill="#333333"/>
<path d="M20.7734 20.3926H29.209V29.7578L20.7734 20.3926ZM11.8457 25.8887H11.7637C11.7637 24.0111 12.2741 22.6257 13.2949 21.7324C14.3158 20.8392 15.888 20.3926 18.0117 20.3926L29.209 33.9824C29.209 35.7871 28.7214 37.0768 27.7461 37.8516C26.7982 38.6081 25.2487 38.9863 23.0977 38.9863L11.8457 25.8887ZM11.8047 29.5801L19.9258 39H11.8047V29.5801ZM33.9247 20.3926H41.2802V38.9727H33.9247V20.3926ZM43.6317 37.6738C43.6317 35.7871 44.7255 34.5065 46.913 33.832C47.7515 33.5768 48.8316 33.4492 50.1532 33.4492H51.2333V39H43.6317V37.6738Z" fill="white"/>
<defs>
<linearGradient id="paint0_linear_415_13" x1="29.5" y1="3" x2="15.2" y2="58" gradientUnits="userSpaceOnUse">
<stop stop-color="#DB70E9"/>
<stop offset="1" stop-color="#8A63FB"/>
</linearGradient>
</defs>
</svg>
