<svg width="54" height="50" viewBox="0 0 54 50" fill="none" xmlns="http://www.w3.org/2000/svg">
<path d="M50 25C50 11.1929 38.8071 0 25 0C11.1929 0 0 11.1929 0 25C0 38.8071 11.1929 50 25 50C38.8071 50 50 38.8071 50 25Z" fill="url(#paint0_linear_421_3)"/>
<path d="M16.2344 17.0508H23.4648V25.0781L16.2344 17.0508ZM8.58203 21.7617H8.51172C8.51172 20.1523 8.94922 18.9648 9.82422 18.1992C10.6992 17.4336 12.0469 17.0508 13.8672 17.0508L23.4648 28.6992C23.4648 30.2461 23.0469 31.3516 22.2109 32.0156C21.3984 32.6641 20.0703 32.9883 18.2266 32.9883L8.58203 21.7617ZM8.54688 24.9258L15.5078 33H8.54688V24.9258ZM27.5069 17.0508H33.8116V32.9766H27.5069V17.0508ZM35.8272 31.8633C35.8272 30.2461 36.7647 29.1484 38.6397 28.5703C39.3584 28.3516 40.2842 28.2422 41.417 28.2422H42.3428V33H35.8272V31.8633Z" fill="white"/>
<defs>
<linearGradient id="paint0_linear_421_3" x1="25" y1="3.8743e-07" x2="12" y2="50" gradientUnits="userSpaceOnUse">
<stop stop-color="#DB70E9"/>
<stop offset="1" stop-color="#8A63FB"/>
</linearGradient>
</defs>
</svg>
